# AST/ASF file generated using VICON BodyLanguage
# -----------------------------------------------
:version 1.10
:name VICON
:units
  mass 1.0
  length 0.45
  angle deg
:documentation
   .ast/.asf automatically generated from VICON data using
   VICON BodyBuilder and BodyLanguage model FoxedUp or BRILLIANT.MOD
:root
   order TX TY TZ RX RY RZ
   axis XYZ
   position 0 0 0  
   orientation 0 0 0 
:bonedata
  begin
     id 1 
     name lhipjoint
     direction 0.596438 -0.722117 0.35044 
     length 2.43043 
     axis 0 0 0  XYZ
  end
  begin
     id 2 
     name lfemur
     direction 0.34202 -0.939693 0  
     length 7.0339  
     axis 0 0 20  XYZ
    dof rx ry rz
    limits (-160.0 20.0)
           (-70.0 70.0)
           (-60.0 70.0)
  end
  begin
     id 3 
     name ltibia
     direction 0.34202 -0.939693 0   
     length 7.56602   
     axis 0 0 20   XYZ
    dof rx
    limits (-10.0 170.0)
  end
  begin
     id 4 
     name lfoot
     direction 0.0985677 -0.270812 0.957572   
     length 1.85172   
     axis -90 7.62852e-016 20   XYZ
    dof rx rz
    limits (-45.0 90.0)
           (-70.0 20.0)
  end
  begin
     id 5 
     name ltoes
     direction 1.53534e-011 -4.21843e-011 1   
     length 0.929904   
     axis -90 7.62852e-016 20   XYZ
    dof rx
    limits (-90.0 20.0)
  end
  begin
     id 6 
     name rhipjoint
     direction -0.585088 -0.729594 0.354068   
     length 2.40552  
     axis 0 0 0  XYZ 
  end
  begin
     id 7 
     name rfemur
     direction -0.34202 -0.939693 0   
     length 7.12573   
     axis 0 0 -20   XYZ
    dof rx ry rz
    limits (-160.0 20.0)
           (-70.0 70.0)
           (-70.0 60.0)
  end
  begin
     id 8 
     name rtibia
     direction -0.34202 -0.939693 0   
     length 7.35777   
     axis 0 0 -20   XYZ
    dof rx
    limits (-10.0 170.0)
 end
 begin
     id 9 
     name rfoot
     direction -0.120907 -0.33219 0.935431   
     length 2.0994  
     axis -90 -7.62852e-016 -20   XYZ
    dof rx rz
    limits (-45.0 90.0)
           (-20.0 70.0)
  end
  begin
     id 10 
     name rtoes
     direction -1.53577e-011 -4.21787e-011 1   
     length 1.04244   
     axis -90 -7.62852e-016 -20   XYZ
    dof rx
    limits (-90.0 20.0)
  end
  begin
     id 11 
     name lowerback
     direction 0.00268363 0.993603 -0.112896   
     length 2.15839   
     axis 0 0 0   XYZ
    dof rx ry rz
    limits (-20.0 45.0)
           (-30.0 30.0)
           (-30.0 30.0)
  end
  begin
     id 12 
     name upperback
     direction 0.0272563 0.999411 -0.0208618   
     length 2.16443   
     axis 0 0 0   XYZ
    dof rx ry rz
    limits (-20.0 45.0)
           (-30.0 30.0)
           (-30.0 30.0)
  end
  begin
     id 13 
     name thorax
     direction 0.0254655 0.999174 0.0316806   
     length 2.19003   
     axis 0 0 0   XYZ
    dof rx ry rz
    limits (-20.0 45.0)
           (-30.0 30.0)
           (-30.0 30.0)
  end
  begin
     id 14 
     name lowerneck
     direction -0.0102178 0.988048 0.15381   
     length 1.61507   
     axis 0 0 0   XYZ
    dof rx ry rz
    limits (-20.0 45.0)
           (-30.0 30.0)
           (-30.0 30.0)
  end
  begin
     id 15 
     name upperneck
     direction -0.0061965 0.994088 -0.108398   
     length 1.64042   
     axis 0 0 0   XYZ
    dof rx ry rz
    limits (-20.0 45.0)
           (-30.0 30.0)
           (-30.0 30.0)
  end
  begin
     id 16
     name head
     direction -0.00151929 0.998591 -0.0530385  
     length 1.64343  
     axis 0 0 0   XYZ
    dof rx ry rz
    limits (-20.0 45.0)
           (-30.0 30.0)
           (-30.0 30.0)
  end
  begin
     id 17 
     name lclavicle
     direction 0.948974 0.284245 -0.136574  
     length 3.3483  
     axis 0 0 0   XYZ
    dof ry rz
    limits (-20.0 10.0)
           (0.0 20.0)
  end
  begin
     id 18 
     name lhumerus
     direction 1 -4.48961e-011 1.68576e-027   
     length 4.93485   
     axis -180 -30 -90   XYZ
    dof rx ry rz
    limits (-60.0 90.0)
           (-90.0 90.0)
           (-90.0 90.0)
  end
  begin
     id 19
     name lradius
     direction 1 -4.48965e-011 -2.46405e-027   
     length 3.41719   
     axis -180 -30 -90   XYZ
    dof rx
    limits (-10.0 170.0)
  end
  begin
     id 20
     name lwrist
     direction 1 -4.48968e-011 -8.00486e-028   
     length 1.7086   
     axis 3.27501e-015 90 90   XYZ
    dof ry
    limits (-180.0 0.0)
 end
  begin
     id 21 
     name lhand
     direction 1 -4.48977e-011 -1.60161e-027   
     length 0.6241   
     axis 1.02148e-015 90 90   XYZ
    dof rx rz
    limits (-90.0 90.0)
           (-45.0 45.0)
  end
  begin
     id 22 
     name lfingers
     direction 1 -4.49049e-011 -3.21275e-027   
     length 0.503166   
     axis 2.04295e-015 90 90   XYZ
    dof rx
    limits (0.0 90.0)
  end
  begin
     id 23
     name lthumb
     direction 0.707107 -6.34975e-011 0.707107   
     length 0.722448   
     axis -90 45 -1.62303e-014   XYZ
    dof rx rz
    limits (-45.0 45.0)
           (-45.0 45.0)
  end
  begin
     id 24 
     name rclavicle
     direction -0.904485 0.355099 -0.236246   
     length 3.18329  
     axis 0 0 0   XYZ 
    dof ry rz
    limits (-10.0 20.0)
           (-20.0 0.0)
  end
  begin
     id 25 
     name rhumerus
     direction -1 -4.48953e-011 1.32816e-027  
     length 5.22034   
     axis -180 30 90   XYZ
    dof rx ry rz
    limits (-90.0 60.0)
           (-90.0 90.0)
           (-90.0 90.0)
  end
  begin
     id 26 
     name rradius
     direction -1 -4.48965e-011 -3.93727e-027   
     length 3.41809   
     axis -180 30 90   XYZ
    dof rx
    limits (-10.0 170.0)
  end
  begin
     id 27 
     name rwrist
     direction -1 -4.48962e-011 -8.003e-028   
     length 1.70904   
     axis 3.27501e-015 -90 -90   XYZ
    dof ry
    limits (-180.0 0.0)
  end
  begin
     id 28
     name rhand
     direction -1 -4.49008e-011 -1.60365e-027   
     length 0.77534   
     axis 1.02148e-015 -90 -90   XYZ
    dof rx rz
    limits (-90.0 90.0)
           (-45.0 45.0)
  end
  begin
     id 29
     name rfingers
     direction -1 -4.49001e-011 -3.2064e-027   
     length 0.625099   
     axis 2.04295e-015 -90 -90   XYZ
    dof rx
    limits (0.0 90.0)
  end
  begin
     id 30
     name rthumb
     direction -0.707107 -6.34989e-011 0.707107   
     length 0.897521   
     axis -90 -45 1.62303e-014   XYZ
    dof rx rz
    limits (-45.0 45.0)
           (-45.0 45.0)
  end
:hierarchy
  begin
    root lhipjoint rhipjoint lowerback
    lhipjoint lfemur
    lfemur ltibia
    ltibia lfoot
    lfoot ltoes
    rhipjoint rfemur
    rfemur rtibia
    rtibia rfoot
    rfoot rtoes
    lowerback upperback
    upperback thorax
    thorax lowerneck lclavicle rclavicle
    lowerneck upperneck
    upperneck head
    lclavicle lhumerus
    lhumerus lradius
    lradius lwrist
    lwrist lhand lthumb
    lhand lfingers
    rclavicle rhumerus
    rhumerus rradius
    rradius rwrist
    rwrist rhand rthumb
    rhand rfingers
  end

#!OML:ASF \\sashay\E\Suitcase\Project 1\Capture day 1\Session 1\Male1.ASF
:FULLY-SPECIFIED
:DEGREES
157
root 0.27241 17.4439 -33.8641 5.24392 4.55972 -3.13134
lowerback 3.7807 -2.85634 2.25877
upperback -1.20796 -3.60387 2.87328
thorax -3.31751 -1.81068 1.93413
lowerneck -9.92028 -0.350935 3.16189
upperneck 8.62046 -0.487468 -4.13721
head 4.17831 -0.37251 -1.81657
rclavicle -4.56211e-014 2.66371e-014
rhumerus -39.1389 -28.8751 -61.6269
rradius 20.4656
rwrist 6.58233
rhand -14.1067 14.8505
rfingers 7.12502
rthumb 12.0262 -14.7839
lclavicle -4.56211e-014 2.66371e-014
lhumerus -37.0543 6.94624 80.745
lradius 33.7137
lwrist -5.97526
lhand -2.32087 41.6534
lfingers 7.12502
lthumb 23.3656 70.2551
rfemur -12.3929 0.0213182 28.1674
rtibia 26.5299
rfoot -20.4641 -8.34944
rtoes 17.5303
lfemur -16.2275 -5.79393 -18.4581
ltibia 32.0744
lfoot -22.8868 0.189956
ltoes 12.2812
158
root 0.27112 17.4456 -33.8593 5.33507 4.51094 -3.06172
lowerback 3.72114 -2.84561 2.11363
upperback -1.21354 -3.59763 2.93415
thorax -3.27686 -1.80424 2.07371
lowerneck -10.0939 -0.34733 3.12381
upperneck 8.74804 -0.484629 -4.0765
head 4.24643 -0.370875 -1.79341
rclavicle 2.96686e-014 -1.59028e-014
rhumerus -39.0732 -28.9811 -61.5329
rradius 20.398
rwrist 6.96754
rhand -14.2717 14.3677
rfingers 7.12502
rthumb 11.8672 -15.276
lclavicle 2.96686e-014 -1.59028e-014
lhumerus -36.7298 6.9071 80.9506
lradius 33.6165
lwrist -6.05811
lhand -2.21802 42.5444
lfingers 7.12502
lthumb 23.4643 71.1336
rfemur -12.4942 0.22158 28.0659
rtibia 26.5559
rfoot -20.5931 -8.38292
rtoes 17.4071
lfemur -16.2825 -5.70575 -18.5141
ltibia 32.0313
lfoot -22.9205 0.168695
ltoes 10.7974
159
root 0.276613 17.4425 -33.8508 5.45326 4.54402 -3.03002
lowerback 3.46589 -2.85084 2.11871
upperback -1.11576 -3.61767 2.95435
thorax -3.03073 -1.81437 2.07393
lowerneck -10.3369 -0.359599 3.09899
upperneck 8.69687 -0.507142 -4.05248
head 4.27024 -0.383593 -1.78448
rclavicle 7.46933e-014 -1.19271e-015
rhumerus -38.8832 -28.703 -61.8345
rradius 20.5581
rwrist 6.74834
rhand -14.4604 14.4198
rfingers 7.12502
rthumb 11.6852 -15.2343
lclavicle 7.46933e-014 -1.19271e-015
lhumerus -36.2918 6.75685 81.0878
lradius 33.6546
lwrist -6.06707
lhand -2.08182 41.7892
lfingers 7.12502
lthumb 23.5949 70.3616
rfemur -12.4658 -0.137756 28.0681
rtibia 26.5775
rfoot -20.7037 -8.27983
rtoes 17.9983
lfemur -16.3378 -5.54418 -18.5286
ltibia 32.0247
lfoot -22.9773 -0.228954
ltoes 11.947
160
root 0.276539 17.44 -33.8477 5.44595 4.59472 -3.03866
lowerback 3.42787 -2.84602 2.06703
upperback -1.09017 -3.61437 3.01877
thorax -2.97562 -1.81129 2.16549
lowerneck -10.3288 -0.325638 3.09324
upperneck 8.69821 -0.458483 -4.07034
head 4.27113 -0.360802 -1.78585
rclavicle -1.61016e-014 -3.18055e-015
rhumerus -38.8128 -28.5806 -61.8941
rradius 20.5832
rwrist 6.63354
rhand -14.6564 14.309
rfingers 7.12502
rthumb 11.4961 -15.3558
lclavicle -1.61016e-014 -3.18055e-015
lhumerus -36.4447 6.16472 81.4445
lradius 34.3911
lwrist -5.80526
lhand -2.69324 41.5311
lfingers 7.12502
lthumb 23.0083 70.1779
rfemur -12.4611 -0.0369897 28.0628
rtibia 26.5614
rfoot -20.7015 -8.29329
rtoes 18.8267
lfemur -16.3098 -5.5565 -18.511
ltibia 32.0156
lfoot -23.0338 -0.0593699
ltoes 9.67787
161
root 0.274783 17.4413 -33.8415 5.49333 4.65267 -2.95412
lowerback 3.59643 -2.91067 1.99676
upperback -1.20291 -3.69326 3.02216
thorax -3.18068 -1.84903 2.2275
lowerneck -10.3395 -0.289606 2.97826
upperneck 8.69087 -0.409664 -3.91869
head 4.27313 -0.331834 -1.71711
rclavicle 9.74045e-015 -1.23246e-014
rhumerus -38.9009 -28.144 -62.0768
rradius 20.6163
rwrist 6.40151
rhand -14.6223 15.0112
rfingers 7.12502
rthumb 11.529 -14.6517
lclavicle 9.74045e-015 -1.23246e-014
lhumerus -36.3951 6.17824 81.4455
lradius 34.6473
lwrist -5.64435
lhand -2.14914 42.7235
lfingers 7.12502
lthumb 23.5303 71.3042
rfemur -12.5461 0.0551024 27.9583
rtibia 26.6125
rfoot -20.7849 -8.3912
rtoes 19.0589
lfemur -16.3148 -5.56251 -18.5779
ltibia 31.972
lfoot -22.9699 -0.219241
ltoes 10.3707
162
root 0.275692 17.4418 -33.8377 5.50503 4.70996 -2.92766
lowerback 3.5467 -2.92388 1.98569
upperback -1.14463 -3.71494 3.03799
thorax -3.09022 -1.85962 2.24586
lowerneck -10.2678 -0.29198 3.08178
upperneck 8.38651 -0.420838 -4.04132
head 4.16717 -0.339608 -1.77001
rclavicle 2.33572e-014 -2.38542e-014
rhumerus -38.8034 -28.196 -62.1131
rradius 20.552
rwrist 6.50284
rhand -15.0345 15.0547
rfingers 7.12502
rthumb 11.1314 -14.63
lclavicle 2.33572e-014 -2.38542e-014
lhumerus -36.1808 5.84258 81.587
lradius 34.8874
lwrist -5.5719
lhand -2.05282 42.3749
lfingers 7.12502
lthumb 23.6227 70.9438
rfemur -12.5878 -0.0876174 27.9584
rtibia 26.7538
rfoot -20.8515 -8.35924
rtoes 18.9965
lfemur -16.251 -5.57119 -18.6015
ltibia 31.8333
lfoot -23.0388 -0.18934
ltoes 7.82222
163
root 0.274516 17.439 -33.832 5.54418 4.72366 -2.72888
lowerback 3.62517 -2.99778 1.9072
upperback -1.18494 -3.81571 2.94552
thorax -3.1748 -1.90902 2.20693
lowerneck -10.1684 -0.438536 3.36398
upperneck 8.06065 -0.636459 -4.31535
head 4.04118 -0.450683 -1.91106
rclavicle -4.76586e-014 4.37326e-015
rhumerus -38.8012 -27.8233 -62.4374
rradius 20.7177
rwrist 6.2727
rhand -14.912 14.8572
rfingers 7.12502
rthumb 11.2496 -14.8211
lclavicle -4.76586e-014 4.37326e-015
lhumerus -35.9542 5.90515 81.4483
lradius 34.6265
lwrist -5.59787
lhand -2.52565 40.9848
lfingers 7.12502
lthumb 23.1691 69.6114
rfemur -12.6503 0.107232 27.751
rtibia 26.8202
rfoot -20.8963 -8.63136
rtoes 19.3673
lfemur -16.2006 -5.67654 -18.8022
ltibia 31.7461
lfoot -22.9067 -0.37319
ltoes 10.3557
